<?xml version="1.0" standalone="no"?>
<!DOCTYPE svg PUBLIC "-//W3C//DTD SVG 20010904//EN"
 "http://www.w3.org/TR/2001/REC-SVG-20010904/DTD/svg10.dtd">
<svg version="1.0" xmlns="http://www.w3.org/2000/svg"
 width="245.000000pt" height="244.000000pt" viewBox="0 0 245.000000 244.000000"
 preserveAspectRatio="xMidYMid meet">

<g transform="translate(0.000000,244.000000) scale(0.100000,-0.100000)"
fill="#000000" stroke="none">
<path d="M1117 2178 c-10 -5 -21 -7 -26 -3 -5 3 -16 -2 -24 -10 -11 -10 -30
-14 -64 -11 -28 3 -40 1 -28 -3 19 -8 19 -8 -2 -19 -12 -7 -30 -9 -40 -6 -15
5 -15 4 -3 -5 17 -12 17 -12 -23 -15 -41 -3 -53 -18 -134 -171 -43 -80 -46
-99 -40 -272 6 -172 13 -223 28 -223 5 0 9 15 9 33 0 19 12 50 30 76 27 40 36
68 30 96 -1 6 1 34 5 63 5 43 11 55 33 66 30 15 130 20 147 7 5 -5 48 -20 95
-35 l85 -26 79 30 c67 24 86 28 119 20 24 -5 49 -5 64 1 14 5 30 6 36 2 6 -3
27 -7 46 -7 l36 -1 1 -65 c1 -46 9 -82 28 -123 23 -52 33 -87 35 -124 1 -7 5
-13 10 -13 18 0 58 297 47 351 -3 17 -13 37 -21 45 -8 9 -16 27 -16 42 -2 48
-24 102 -42 102 -5 0 -6 7 -3 15 8 22 -91 119 -151 146 -29 14 -71 23 -108 25
-33 1 -60 3 -60 4 0 1 -31 4 -68 5 -37 2 -73 5 -80 8 -7 3 -21 1 -30 -5z m108
-28 c-3 -5 -10 -10 -16 -10 -5 0 -9 5 -9 10 0 6 7 10 16 10 8 0 12 -4 9 -10z"/>
<path d="M1359 1505 c-40 -7 -79 -21 -104 -38 -50 -34 -60 -34 -114 3 -37 26
-54 30 -110 31 -36 0 -82 2 -102 4 -41 4 -84 -14 -84 -35 0 -19 -14 -30 -38
-30 -27 0 -67 -34 -58 -49 4 -6 15 -9 24 -5 12 4 18 -2 22 -23 19 -90 26 -104
60 -119 22 -9 71 -14 139 -14 74 0 106 -4 109 -12 2 -7 22 23 43 67 55 112 69
112 124 1 42 -88 60 -111 60 -79 0 15 7 18 48 15 26 -2 81 1 122 7 88 12 105
26 115 102 5 35 13 53 25 57 26 10 8 52 -22 52 -13 1 -36 7 -53 15 -27 12 -28
13 -7 14 31 1 28 18 -7 36 -32 16 -89 16 -192 0z m-429 -79 c0 -7 -14 -19 -30
-26 -38 -16 -37 -45 2 -46 15 -1 25 3 23 7 -3 4 0 11 6 15 6 4 16 -1 21 -10
11 -20 51 -21 68 -1 12 15 30 12 30 -5 0 -10 -56 -30 -86 -30 -17 0 -22 -4
-18 -15 11 -28 128 -11 147 22 15 25 24 13 22 -28 -3 -48 -13 -56 -80 -64 -55
-7 -182 8 -197 23 -5 5 -11 39 -14 75 -4 74 -2 78 61 88 22 4 41 7 43 8 1 0 2
-5 2 -13z m634 -2 c9 -3 13 -10 10 -15 -3 -5 2 -9 10 -9 19 0 21 -32 5 -95
-10 -39 -14 -44 -55 -55 -63 -18 -213 -9 -229 13 -13 18 -8 67 6 67 6 0 26 -7
46 -15 49 -21 95 -20 91 2 -2 9 -11 17 -21 19 -25 3 -35 14 -14 14 9 0 21 9
27 21 12 21 35 21 35 1 0 -7 3 -12 8 -12 4 0 18 0 32 0 37 0 31 28 -10 46 -19
8 -35 16 -35 19 0 7 75 6 94 -1z m-178 -71 c-7 -7 -26 7 -26 19 0 6 6 6 15 -2
9 -7 13 -15 11 -17z"/>
<path d="M680 1390 c0 -5 5 -10 10 -10 6 0 10 5 10 10 0 6 -4 10 -10 10 -5 0
-10 -4 -10 -10z"/>
<path d="M1670 1327 c0 -33 13 -76 21 -71 15 9 10 61 -6 74 -12 10 -15 10 -15
-3z"/>
<path d="M721 1298 c-5 -13 -6 -27 -3 -32 6 -11 32 22 32 41 0 21 -20 15 -29
-9z"/>
<path d="M1105 1121 c-3 -5 5 -17 17 -25 l23 -16 -30 -24 c-17 -13 -32 -21
-35 -16 -3 4 -22 -3 -42 -16 -30 -19 -38 -31 -38 -54 0 -23 5 -30 19 -30 11 0
22 4 25 9 6 10 79 20 188 26 58 4 89 0 133 -15 32 -11 62 -20 67 -20 5 0 8 17
6 38 -3 36 -5 38 -85 71 -72 31 -79 36 -61 45 12 6 23 17 26 24 6 18 -53 15
-68 -3 -7 -8 -25 -15 -40 -15 -15 0 -33 7 -40 15 -14 17 -56 20 -65 6z m173
-106 c11 -10 -9 -18 -59 -23 -37 -3 -54 -1 -60 9 -6 11 0 16 24 21 32 6 86 2
95 -7z"/>
<path d="M1169 889 c-8 -15 -5 -20 14 -24 13 -4 43 -5 68 -3 36 2 44 6 44 23
0 18 -7 20 -58 21 -46 1 -60 -3 -68 -17z"/>
<path d="M870 881 c0 -19 62 -85 111 -118 27 -19 39 -34 34 -43 -2 -4 10 -14
26 -24 25 -15 51 -18 147 -17 217 3 222 4 248 37 27 34 46 53 69 73 15 12 16
6 12 -75 -4 -87 -20 -141 -44 -157 -6 -4 -15 -22 -18 -40 -4 -17 -11 -37 -17
-43 -5 -7 -8 -28 -6 -47 2 -29 -5 -42 -40 -78 -23 -24 -66 -76 -95 -116 -28
-40 -55 -71 -59 -70 -6 2 -202 184 -265 246 -8 7 -12 20 -9 27 6 17 -13 74
-31 93 -8 7 -27 40 -43 72 -26 51 -30 69 -30 146 0 48 -4 94 -8 101 -11 17
-46 -21 -66 -73 -15 -36 -23 -43 -89 -69 -76 -31 -115 -51 -263 -134 -51 -29
-95 -52 -99 -52 -4 0 -23 -9 -41 -21 l-34 -21 22 -31 c64 -93 256 -246 397
-317 98 -49 257 -97 383 -116 303 -45 643 43 894 229 71 54 214 194 214 212 0
20 -98 76 -195 111 -183 66 -200 72 -270 109 -57 29 -78 48 -113 97 -33 47
-43 68 -40 90 3 20 1 27 -7 24 -7 -2 -18 1 -24 7 -8 8 -11 6 -11 -6 0 -10 -8
-21 -17 -24 -9 -4 -30 -22 -47 -41 -50 -57 -100 -73 -242 -75 -64 -1 -99 2
-120 13 -35 18 -84 64 -84 79 0 6 -10 11 -22 11 -13 0 -36 11 -52 25 -35 30
-56 32 -56 6z m-22 -452 c-3 -8 -7 -3 -11 10 -4 17 -3 21 5 13 5 -5 8 -16 6
-23z m762 -35 c0 -8 -4 -14 -10 -14 -5 0 -10 9 -10 21 0 11 5 17 10 14 6 -3
10 -13 10 -21z m-98 -24 c0 -16 1 -36 2 -42 1 -7 9 -16 19 -20 9 -4 17 -11 17
-17 0 -15 -44 -21 -58 -8 -19 20 -27 84 -12 102 19 23 30 18 32 -15z m-578
-21 c-3 -5 -10 -7 -15 -3 -5 3 -7 10 -3 15 3 5 10 7 15 3 5 -3 7 -10 3 -15z
m322 -264 c3 -8 3 -19 0 -24 -10 -16 -36 -1 -36 20 0 22 28 26 36 4z"/>
<path d="M1230 80 c0 -5 5 -10 10 -10 6 0 10 5 10 10 0 6 -4 10 -10 10 -5 0
-10 -4 -10 -10z"/>
</g>
</svg>
